<?xml version="1.0" encoding="UTF-8"?>
<svg version="1.1" xmlns="http://www.w3.org/2000/svg" width="240" height="60">
<path d="M0 0 C0.66 0.66 1.32 1.32 2 2 C1.61121812 5.01305957 0.73543126 6.39685311 -1 9 C-3.16874252 8.49396008 -4.99967627 8.00016187 -7 7 C-8.54023996 6.93049459 -10.08334988 6.91547643 -11.625 6.9375 C-12.44226562 6.94652344 -13.25953125 6.95554687 -14.1015625 6.96484375 C-14.72804688 6.97644531 -15.35453125 6.98804688 -16 7 C-16.33 8.32 -16.66 9.64 -17 11 C-15.845 11.433125 -14.69 11.86625 -13.5 12.3125 C-12.77296875 12.58835937 -12.0459375 12.86421875 -11.296875 13.1484375 C-9.81565821 13.6975961 -8.32625815 14.22538846 -6.828125 14.7265625 C-1.93225027 16.40146701 1.57853499 18.15706998 4 23 C4.5401375 29.37362249 3.90625888 32.86018568 0 38 C-5.68147614 41.18716954 -13.46117654 40.968465 -19.640625 39.27734375 C-23.43863598 37.76426518 -25.50655847 36.86845709 -27.5625 33.25 C-27.706875 32.5075 -27.85125 31.765 -28 31 C-26.68 29.35 -25.36 27.7 -24 26 C-21.74842333 27.08409247 -19.73871477 28.18360583 -17.6875 29.625 C-14.25435268 31.38149398 -11.8068112 31.35913313 -8 31 C-5.76659005 29.23522981 -5.76659005 29.23522981 -5.98828125 26.99609375 C-6.87512062 24.70120726 -6.87512062 24.70120726 -9.73046875 23.91015625 C-10.87128906 23.63042969 -12.01210938 23.35070312 -13.1875 23.0625 C-22.89625635 20.25656273 -22.89625635 20.25656273 -26 16 C-26.82701463 11.83601023 -26.87986371 8.15778734 -26 4 C-20.58506976 -4.01274724 -7.94928487 -3.66890071 0 0 Z " fill="#E7992F" transform="translate(29,16)"/>
<path d="M0 0 C2.64 0 5.28 0 8 0 C8.33 7.26 8.66 14.52 9 22 C10.134375 20.35 11.26875 18.7 12.4375 17 C16.21150652 12.20653912 16.21150652 12.20653912 19.53515625 11.3359375 C21.76757111 11.3713165 23.81615008 11.54503127 26 12 C25.41827275 15.9520518 23.44842259 18.22095053 20.9375 21.25 C20.20402344 22.14203125 19.47054687 23.0340625 18.71484375 23.953125 C18.14894531 24.62859375 17.58304688 25.3040625 17 26 C19.09372792 30.6502799 22.2673356 34.48653444 25.3203125 38.5390625 C27 41 27 41 27 43 C19.03369066 43.78101072 19.03369066 43.78101072 15.1875 40.875 C12.9819776 37.97631341 10.93631604 35.08376258 9 32 C8.67 35.63 8.34 39.26 8 43 C2.25 44.125 2.25 44.125 0 43 C0 28.81 0 14.62 0 0 Z " fill="#EBA74A" transform="translate(158,12)"/>
<path d="M0 0 C4.49167626 2.12763612 7.06291663 4.41217097 9 9 C10.61914299 15.43891746 10.10407995 21.08803093 7 27 C3.04986536 30.95013464 -0.31087242 32.14858751 -5.8125 32.25 C-10.29203353 32.1782753 -13.30177358 31.72964331 -17 29 C-21.16079412 23.85375465 -21.62440487 19.42756872 -21.38671875 12.87890625 C-20.81088878 8.59217204 -19.68138852 6.40608812 -17 3 C-11.60774457 -0.92837853 -6.44803801 -0.7863461 0 0 Z M-10.25 8.4375 C-12.79543942 12.16475057 -12.49333222 15.60853446 -12 20 C-11.67 20.99 -11.34 21.98 -11 23 C-8.2598531 24.52490784 -8.2598531 24.52490784 -5 25 C-2.05549106 23.69132936 -0.45298569 22.90597137 1 20 C1.64468272 14.04071485 1.64468272 14.04071485 -1.25 9 C-4.65159909 6.52610975 -6.61706141 6.1164559 -10.25 8.4375 Z " fill="#E69727" transform="translate(58,24)"/>
<path d="M0 0 C2.97 0 5.94 0 9 0 C9.33 7.92 9.66 15.84 10 24 C16.4 23.8 16.4 23.8 18 22 C18.2131616 19.43317904 18.37701016 16.88389866 18.5 14.3125 C18.73812298 9.46625629 19.09656428 4.78068068 20 0 C22.64 0 25.28 0 28 0 C28 10.23 28 20.46 28 31 C25.36 31 22.72 31 20 31 C19.67 30.34 19.34 29.68 19 29 C18.525625 29.495 18.05125 29.99 17.5625 30.5 C13.77589408 32.71654981 10.28227987 32.83202942 6 32 C2.71824682 29.47031526 1.30756223 27.92268669 0 24 C-0.08239169 22.15389468 -0.10743359 20.30494836 -0.09765625 18.45703125 C-0.09443359 17.38388672 -0.09121094 16.31074219 -0.08789062 15.20507812 C-0.07951172 14.08552734 -0.07113281 12.96597656 -0.0625 11.8125 C-0.05798828 10.68134766 -0.05347656 9.55019531 -0.04882812 8.38476562 C-0.03703498 5.58979073 -0.0205765 2.7949218 0 0 Z " fill="#E3972B" transform="translate(73,24)"/>
<path d="M0 0 C2.97 0 5.94 0 9 0 C11.41116504 5.97283522 13.76286232 11.95972825 16 18 C18.73988168 15.26011832 19.43239425 12.04914359 20.5625 8.4375 C22.88006757 1.11993243 22.88006757 1.11993243 24 0 C25.51928038 -0.07179964 27.04167482 -0.08392007 28.5625 -0.0625 C29.38878906 -0.05347656 30.21507812 -0.04445313 31.06640625 -0.03515625 C31.70449219 -0.02355469 32.34257812 -0.01195313 33 0 C31.10702069 6.79245517 28.8151793 13.38872267 26.375 20 C26.06167725 20.84925049 25.74835449 21.69850098 25.42553711 22.57348633 C23.14179887 28.71640227 23.14179887 28.71640227 22 31 C18.37 31 14.74 31 11 31 C8.2870636 24.38043519 5.74021408 17.70587626 3.25 11 C2.93216553 10.15074951 2.61433105 9.30149902 2.28686523 8.42651367 C1.99110596 7.62576416 1.69534668 6.82501465 1.390625 6 C1.12282227 5.278125 0.85501953 4.55625 0.57910156 3.8125 C0 2 0 2 0 0 Z " fill="#E6A03B" transform="translate(105,24)"/>
<path d="M0 0 C5.0359778 0.59952117 7.61633879 2.73819983 10.765625 6.5390625 C13.50353094 13.02357657 13.47428315 18.83723396 10.9765625 25.40234375 C8.90573006 29.34641011 6.05607246 30.98391335 1.953125 32.3515625 C-3.94367278 32.87933098 -9.11965965 32.98831669 -14.046875 29.3515625 C-18.27601676 24.1207819 -18.48896731 19.74147118 -18.48046875 13.12109375 C-18.046875 10.3515625 -18.046875 10.3515625 -15.046875 6.3515625 C-15.376875 11.9615625 -15.706875 17.5715625 -16.046875 23.3515625 C-15.386875 23.3515625 -14.726875 23.3515625 -14.046875 23.3515625 C-13.716875 24.6715625 -13.386875 25.9915625 -13.046875 27.3515625 C-12.056875 27.3515625 -11.066875 27.3515625 -10.046875 27.3515625 C-9.716875 28.0115625 -9.386875 28.6715625 -9.046875 29.3515625 C-4.426875 29.3515625 0.193125 29.3515625 4.953125 29.3515625 C4.953125 28.6915625 4.953125 28.0315625 4.953125 27.3515625 C5.943125 27.3515625 6.933125 27.3515625 7.953125 27.3515625 C7.953125 26.3615625 7.953125 25.3715625 7.953125 24.3515625 C8.613125 24.3515625 9.273125 24.3515625 9.953125 24.3515625 C9.458125 17.9165625 9.458125 17.9165625 8.953125 11.3515625 C6.63282527 14.29036702 6.63282527 14.29036702 6.703125 18.2265625 C6.31579085 21.84613337 5.91985833 22.38958155 3.328125 25.3515625 C-0.50625434 27.62378729 -2.66735174 27.78951483 -7.046875 27.3515625 C-7.046875 26.6915625 -7.046875 26.0315625 -7.046875 25.3515625 C-7.706875 25.3515625 -8.366875 25.3515625 -9.046875 25.3515625 C-10.36916689 22.70697871 -10.14364694 20.67394949 -10.109375 17.7265625 C-10.10035156 16.72367188 -10.09132813 15.72078125 -10.08203125 14.6875 C-10.06462891 13.53121094 -10.06462891 13.53121094 -10.046875 12.3515625 C-9.716875 12.3515625 -9.386875 12.3515625 -9.046875 12.3515625 C-8.716875 15.9815625 -8.386875 19.6115625 -8.046875 23.3515625 C-3.8619408 24.33544422 -3.8619408 24.33544422 0.265625 23.5390625 C2.10410322 22.44468925 2.10410322 22.44468925 2.953125 20.3515625 C3.56276394 14.76232231 3.56276394 14.76232231 1.203125 9.9765625 C-0.83043351 8.50788135 -2.74421849 7.33841529 -5.046875 6.3515625 C-4.046875 5.3515625 -4.046875 5.3515625 -1.484375 5.2890625 C-0.2778125 5.32 -0.2778125 5.32 0.953125 5.3515625 C0.953125 6.0115625 0.953125 6.6715625 0.953125 7.3515625 C3.428125 7.8465625 3.428125 7.8465625 5.953125 8.3515625 C5.293125 6.3715625 4.633125 4.3915625 3.953125 2.3515625 C-1.50457311 2.24018091 -6.66196859 2.43498269 -12.046875 3.3515625 C-8.79077363 -0.86682312 -4.95317279 -0.13160604 0 0 Z " fill="#E1982F" transform="translate(55.046875,23.6484375)"/>
<path d="M0 0 C1.65 0 3.3 0 5 0 C5 6.93 5 13.86 5 21 C9.75453349 17.36289803 9.75453349 17.36289803 12.6875 14.25 C15 12 15 12 17 12 C17.22432841 15.29014997 17.30380397 17.42277246 15.75 20.375 C14 22 14 22 10 22 C9.67 23.65 9.34 25.3 9 27 C7.68 27.33 6.36 27.66 5 28 C5 31.63 5 35.26 5 39 C3.35 39 1.7 39 0 39 C0 26.13 0 13.26 0 0 Z " fill="#E79013" transform="translate(160,14)"/>
<path d="M0 0 C2.64 0 5.28 0 8 0 C8 10.23 8 20.46 8 31 C5.03 31 2.06 31 -1 31 C-1.02915731 26.95834861 -1.04685173 22.9167245 -1.0625 18.875 C-1.07087891 17.73289062 -1.07925781 16.59078125 -1.08789062 15.4140625 C-1.09111328 14.30546875 -1.09433594 13.196875 -1.09765625 12.0546875 C-1.10289307 11.03874512 -1.10812988 10.02280273 -1.11352539 8.97607422 C-0.99652309 5.90885274 -0.56776417 3.01366866 0 0 Z " fill="#E88F13" transform="translate(142,24)"/>
<path d="M0 0 C3.1875 -0.3125 3.1875 -0.3125 7 0 C9.875 2.4375 9.875 2.4375 12 5 C12.33 5.33 12.66 5.66 13 6 C13.04092937 8.33297433 13.04241723 10.66705225 13 13 C12.01 13 11.02 13 10 13 C10 14.98 10 16.96 10 19 C-4.38330757 22.80834621 -4.38330757 22.80834621 -10.5 19.75 C-12.18799218 17.78067579 -12.83286119 16.5906515 -13 14 C-12.34 13.34 -11.68 12.68 -11 12 C-11 12.66 -11 13.32 -11 14 C-8.69 14.33 -6.38 14.66 -4 15 C-4 15.66 -4 16.32 -4 17 C-0.37 16.67 3.26 16.34 7 16 C7.07654536 11.48382401 7.10228696 7.40914783 6 3 C3.69 3.33 1.38 3.66 -1 4 C-0.67 2.68 -0.34 1.36 0 0 Z " fill="#E98F11" transform="translate(18,33)"/>
<path d="M0 0 C1.23556641 0.01740234 1.23556641 0.01740234 2.49609375 0.03515625 C3.32238281 0.04417969 4.14867187 0.05320312 5 0.0625 C5.63808594 0.07410156 6.27617187 0.08570312 6.93359375 0.09765625 C4.18168517 9.97215176 0.53231538 19.50795651 -3.06640625 29.09765625 C-3.39640625 29.09765625 -3.72640625 29.09765625 -4.06640625 29.09765625 C-3.99421875 28.47117187 -3.92203125 27.8446875 -3.84765625 27.19921875 C-3.75484375 26.38195312 -3.66203125 25.5646875 -3.56640625 24.72265625 C-3.47359375 23.91054688 -3.38078125 23.0984375 -3.28515625 22.26171875 C-3.03288274 20.128528 -3.03288274 20.128528 -3.06640625 18.09765625 C-3.72640625 17.43765625 -4.38640625 16.77765625 -5.06640625 16.09765625 C-5.72640625 17.08765625 -6.38640625 18.07765625 -7.06640625 19.09765625 C-8.41710602 15.04555694 -7.05480577 12.33078681 -5.69140625 8.47265625 C-5.45679687 7.77914063 -5.2221875 7.085625 -4.98046875 6.37109375 C-2.83648475 0.13404937 -2.83648475 0.13404937 0 0 Z " fill="#E99F37" transform="translate(131.06640625,23.90234375)"/>
<path d="M0 0 C4.01349645 0.28001138 5.72035142 0.75763789 8.8125 3.4375 C11.85014544 6.99588465 12.35468688 9.11410025 12.27734375 13.83203125 C11.77987919 17.72066265 10.38214827 19.86559438 8 23 C2.31852386 26.18716954 -5.46117654 25.968465 -11.640625 24.27734375 C-15.43863598 22.76426518 -17.50655847 21.86845709 -19.5625 18.25 C-19.706875 17.5075 -19.85125 16.765 -20 16 C-18.68 14.35 -17.36 12.7 -16 11 C-12.56404834 12.52708963 -9.88087546 14.59927045 -7 17 C-9.64 16.67 -12.28 16.34 -15 16 C-13.88145414 19.72614153 -13.88145414 19.72614153 -11 22 C-4.95856142 22.43426831 1.01302309 21.76025104 7 21 C7 19.02 7 17.04 7 15 C7.99 15 8.98 15 10 15 C9.71110084 10.21344195 9.71110084 10.21344195 7.4375 6.1875 C6.963125 5.795625 6.48875 5.40375 6 5 C6 4.34 6 3.68 6 3 C3.03 2.505 3.03 2.505 0 2 C0 1.34 0 0.68 0 0 Z " fill="#E6AE57" transform="translate(21,31)"/>
<path d="M0 0 C0.99 0 1.98 0 3 0 C3 4.62 3 9.24 3 14 C2.34 14 1.68 14 1 14 C1 14.99 1 15.98 1 17 C0.01 17 -0.98 17 -2 17 C-2 17.66 -2 18.32 -2 19 C-6.62 19.33 -11.24 19.66 -16 20 C-16.33 19.01 -16.66 18.02 -17 17 C-17.99 17 -18.98 17 -20 17 C-20.33 15.68 -20.66 14.36 -21 13 C-21.66 13 -22.32 13 -23 13 C-22.25 7.25 -22.25 7.25 -20 5 C-17.04816899 7.95183101 -16.91336012 10.95511947 -16 15 C-15.34 15 -14.68 15 -14 15 C-14 15.66 -14 16.32 -14 17 C-10.38732061 16.7166526 -7.48255059 16.22519028 -4.1875 14.6875 C-0.6982838 10.40074867 -0.56699995 5.38226822 0 0 Z " fill="#E98F12" transform="translate(62,34)"/>
<path d="M0 0 C2.64 0 5.28 0 8 0 C8 7.59 8 15.18 8 23 C7.67 23 7.34 23 7 23 C7 16.07 7 9.14 7 2 C5.35 2 3.7 2 2 2 C2 14.87 2 27.74 2 41 C3.65 41 5.3 41 7 41 C7 37.37 7 33.74 7 30 C7.99 30 8.98 30 10 30 C9.67 30.66 9.34 31.32 9 32 C8.7724985 33.87056791 8.59037189 35.74685958 8.4375 37.625 C8.35371094 38.62789062 8.26992187 39.63078125 8.18359375 40.6640625 C8.12300781 41.43492188 8.06242188 42.20578125 8 43 C2.25 44.125 2.25 44.125 0 43 C0 28.81 0 14.62 0 0 Z " fill="#E4AE5E" transform="translate(158,12)"/>
<path d="M0 0 C1.32 0 2.64 0 4 0 C4 8.91 4 17.82 4 27 C2.35 27 0.7 27 -1 27 C-1.97598632 20.75368755 -2.01765579 14.7256121 -1.625 8.4375 C-1.58189697 7.72271484 -1.53879395 7.00792969 -1.49438477 6.27148438 C-1.13196702 1.13196702 -1.13196702 1.13196702 0 0 Z " fill="#E88F13" transform="translate(95,26)"/>
<path d="M0 0 C2.97 0 5.94 0 9 0 C9.33 7.92 9.66 15.84 10 24 C7 22 7 22 6.56762695 20.02880859 C6.54144287 19.24328613 6.51525879 18.45776367 6.48828125 17.6484375 C6.45283203 16.79765625 6.41738281 15.946875 6.38085938 15.0703125 C6.35830078 14.18085937 6.33574219 13.29140625 6.3125 12.375 C6.26125977 11.02921875 6.26125977 11.02921875 6.20898438 9.65625 C6.12637598 7.43762462 6.05727281 5.2194006 6 3 C4.68 3 3.36 3 2 3 C2.33 11.58 2.66 20.16 3 29 C0.55312961 26.55312961 0.03963289 24.8880324 -0.11352539 21.45629883 C-0.10828857 20.46654053 -0.10305176 19.47678223 -0.09765625 18.45703125 C-0.09443359 17.38388672 -0.09121094 16.31074219 -0.08789062 15.20507812 C-0.07951172 14.08552734 -0.07113281 12.96597656 -0.0625 11.8125 C-0.05798828 10.68134766 -0.05347656 9.55019531 -0.04882812 8.38476562 C-0.03703498 5.58979073 -0.0205765 2.7949218 0 0 Z " fill="#EBB265" transform="translate(73,24)"/>
<path d="M0 0 C1.23104155 3.68400584 0.90767252 6.91474976 0.5625 10.75 C0.46066406 11.92046875 0.35882813 13.0909375 0.25390625 14.296875 C0.17011719 15.18890625 0.08632813 16.0809375 0 17 C0.66 17 1.32 17 2 17 C2.33 18.32 2.66 19.64 3 21 C3.99 21 4.98 21 6 21 C6.33 21.66 6.66 22.32 7 23 C11.62 23 16.24 23 21 23 C21 22.34 21 21.68 21 21 C21.99 21 22.98 21 24 21 C24 20.01 24 19.02 24 18 C24.66 18 25.32 18 26 18 C26.66 14.7 27.32 11.4 28 8 C29.28550523 13.14202092 28.26722692 16.2924754 26 21 C22.04986536 24.95013464 18.68912758 26.14858751 13.1875 26.25 C8.70796647 26.1782753 5.69822642 25.72964331 2 23 C-2.24445427 17.75028025 -2.42122268 13.41324663 -2.3359375 6.76953125 C-2.00586943 4.04838865 -1.39305306 2.33475693 0 0 Z " fill="#E6B161" transform="translate(39,30)"/>
<path d="M0 0 C3 1 3 1 4 3 C4.9075 3.226875 5.815 3.45375 6.75 3.6875 C11.00646529 5.40645714 12.86948591 8.00292932 15 12 C15 12.66 15 13.32 15 14 C13.54176788 14.0270043 12.08339325 14.04639787 10.625 14.0625 C9.81289062 14.07410156 9.00078125 14.08570313 8.1640625 14.09765625 C6 14 6 14 4 13 C3.59270772 10.67843403 3.25561323 8.3431213 3 6 C2.34 6 1.68 6 1 6 C0.34 4.35 -0.32 2.7 -1 1 C-0.67 0.67 -0.34 0.34 0 0 Z " fill="#E69016" transform="translate(170,41)"/>
<path d="M0 0 C2.64 0 5.28 0 8 0 C8 10.23 8 20.46 8 31 C5.03 31 2.06 31 -1 31 C-1.05796132 26.89589245 -1.09358313 22.79188984 -1.125 18.6875 C-1.14175781 17.52025391 -1.15851563 16.35300781 -1.17578125 15.15039062 C-1.18222656 14.03212891 -1.18867188 12.91386719 -1.1953125 11.76171875 C-1.20578613 10.73006592 -1.21625977 9.69841309 -1.22705078 8.63549805 C-1 6 -1 6 1 3 C1 11.58 1 20.16 1 29 C2.98 29 4.96 29 7 29 C7 19.76 7 10.52 7 1 C4.69 1 2.38 1 0 1 C0 0.67 0 0.34 0 0 Z " fill="#E5B671" transform="translate(142,24)"/>
<path d="M0 0 C0 1.32 0 2.64 0 4 C1.60397277 4.16852247 3.2081869 4.33474886 4.8125 4.5 C5.70582031 4.5928125 6.59914063 4.685625 7.51953125 4.78125 C10.08305099 5.04392401 10.08305099 5.04392401 13 5 C15.4385138 9.72462048 15.15517763 13.80154939 15 19 C11.04 19 7.08 19 3 19 C3 18.34 3 17.68 3 17 C4.11375 16.87625 5.2275 16.7525 6.375 16.625 C10.03103677 16.3534187 10.03103677 16.3534187 12 14 C12.1791668 11.92521026 12.1791668 11.92521026 11 10 C8.0955154 8.73553402 8.0955154 8.73553402 4.625 7.9375 C-2.57657551 6.07722606 -2.57657551 6.07722606 -5 3 C-2.25 0 -2.25 0 0 0 Z " fill="#E7A648" transform="translate(11,31)"/>
<path d="M0 0 C3.63711924 0.89332753 5.37334563 1.37334563 8 4 C7.61121812 7.01305957 6.73543126 8.39685311 5 11 C2.83125748 10.49396008 1.00032373 10.00016187 -1 9 C-2.49756871 8.90500497 -3.99942932 8.87012802 -5.5 8.875 C-6.2940625 8.87242188 -7.088125 8.86984375 -7.90625 8.8671875 C-10.05918534 8.86722004 -10.05918534 8.86722004 -12 10 C-11.34 8.68 -10.68 7.36 -10 6 C-5.71 6 -1.42 6 3 6 C3 5.34 3 4.68 3 4 C1.68 3.67 0.36 3.34 -1 3 C-1 2.34 -1 1.68 -1 1 C-7.435 1.495 -7.435 1.495 -14 2 C-9.53212308 -0.97858461 -5.23992882 -0.37428063 0 0 Z " fill="#EAB364" transform="translate(23,14)"/>
<path d="M0 0 C0.99 0.99 1.98 1.98 3 3 C3.66 2.67 4.32 2.34 5 2 C4.52525225 4.14681531 4.04508251 6.29243228 3.5625 8.4375 C3.16224609 10.22994141 3.16224609 10.22994141 2.75390625 12.05859375 C2 15 2 15 1 16 C-1.67058851 16.14115161 -4.32432238 16.04247107 -7 16 C-7 14.68 -7 13.36 -7 12 C-6.401875 11.4225 -5.80375 10.845 -5.1875 10.25 C-2.16464025 7.14077283 -1.36591433 4.09774298 0 0 Z " fill="#E78F16" transform="translate(125,38)"/>
<path d="M0 0 C1.670625 0.061875 1.670625 0.061875 3.375 0.125 C4.035 2.105 4.695 4.085 5.375 6.125 C3.6875 8.1875 3.6875 8.1875 1.375 10.125 C-2.01654295 9.96349795 -3.20796757 9.54203243 -5.625 7.125 C-5.875 4.625 -5.875 4.625 -5.625 2.125 C-3.625 0.125 -3.625 0.125 0 0 Z " fill="#E9A746" transform="translate(192.625,45.875)"/>
<path d="M0 0 C2.3125 1.25 2.3125 1.25 3.3125 2.25 C3.02519945 4.58944736 2.69313221 6.9239143 2.3125 9.25 C-0.5 9.875 -0.5 9.875 -3.6875 10.25 C-4.6775 9.59 -5.6675 8.93 -6.6875 8.25 C-7.125 5.3125 -7.125 5.3125 -6.6875 2.25 C-4.35550923 -0.51384091 -3.52665203 -0.98418196 0 0 Z " fill="#E6B770" transform="translate(147.6875,11.75)"/>
<path d="M0 0 C2.09782787 2.09782787 2.6509396 3.3799207 3.625 6.125 C3.88539062 6.84945312 4.14578125 7.57390625 4.4140625 8.3203125 C4.70410156 9.15175781 4.70410156 9.15175781 5 10 C5.66 10 6.32 10 7 10 C6.75 12.875 6.75 12.875 6 16 C3.9375 17.375 3.9375 17.375 2 18 C2 19.32 2 20.64 2 22 C4.97 21.67 7.94 21.34 11 21 C11 21.66 11 22.32 11 23 C7.37 23 3.74 23 0 23 C-3.125 15.375 -3.125 15.375 -2 12 C-1.34 13.32 -0.68 14.64 0 16 C0.66 16 1.32 16 2 16 C2.18125124 11.37809326 1.82562083 8.22174816 0 4 C0 2.68 0 1.36 0 0 Z " fill="#EAAC50" transform="translate(116,32)"/>
<path d="M0 0 C0.33 0 0.66 0 1 0 C1.33 8.25 1.66 16.5 2 25 C1.34 24.34 0.68 23.68 0 23 C-0.474375 23.495 -0.94875 23.99 -1.4375 24.5 C-5.10560943 26.64718601 -8.83575725 26.78223344 -13 26 C-13.99 25.01 -14.98 24.02 -16 23 C-11.38 23 -6.76 23 -2 23 C-2 22.01 -2 21.02 -2 20 C-2.66 19.34 -3.32 18.68 -4 18 C-3.01 17.34 -2.02 16.68 -1 16 C-0.61605333 13.22737745 -0.39657752 10.65676472 -0.3125 7.875 C-0.27833984 7.12089844 -0.24417969 6.36679687 -0.20898438 5.58984375 C-0.12645722 3.72708799 -0.06155289 1.86356674 0 0 Z " fill="#EFC687" transform="translate(92,30)"/>
<path d="M0 0 C1.32 0 2.64 0 4 0 C4.0816082 2.37570543 4.14077222 4.74855841 4.1875 7.125 C4.21263672 7.79015625 4.23777344 8.4553125 4.26367188 9.140625 C4.33320714 13.86902292 3.40278375 16.95121479 1 21 C0.67 21 0.34 21 0 21 C0 14.07 0 7.14 0 0 Z " fill="#EB8E10" transform="translate(161,15)"/>
<path d="M0 0 C0.2295711 3.36704285 0.33943529 5.41370268 -1.375 8.375 C-1.91125 8.91125 -2.4475 9.4475 -3 10 C-3.66 10 -4.32 10 -5 10 C-5.61875 10.309375 -6.2375 10.61875 -6.875 10.9375 C-8.92248075 11.96124037 -10.77073544 12.52230045 -13 13 C-12.67587628 9.97484531 -12.10171348 9.08758661 -9.75 7.0625 C-8.8425 6.381875 -7.935 5.70125 -7 5 C-5.6696875 3.63875 -5.6696875 3.63875 -4.3125 2.25 C-2 0 -2 0 0 0 Z " fill="#E49C33" transform="translate(177,26)"/>
<path d="M0 0 C2 3 2 3 2 6 C0.35 5.67 -1.3 5.34 -3 5 C-3 4.34 -3 3.68 -3 3 C-5.64 3.66 -8.28 4.32 -11 5 C-11 4.34 -11 3.68 -11 3 C-12.32 3.33 -13.64 3.66 -15 4 C-14 1 -14 1 -12 -0.25 C-7.94151177 -1.26462206 -4.0339745 -1.18086876 0 0 Z " fill="#E88F12" transform="translate(59,26)"/>
<path d="M0 0 C0 0.66 0 1.32 0 2 C1.65 2 3.3 2 5 2 C4.67 2.99 4.34 3.98 4 5 C0.37 5 -3.26 5 -7 5 C-6.67 4.01 -6.34 3.02 -6 2 C-9.63 2.66 -13.26 3.32 -17 4 C-15 1 -15 1 -12.4375 0.3125 C-8.27705498 -0.06572227 -4.17383087 -0.08347662 0 0 Z " fill="#E1952C" transform="translate(22,15)"/>
<path d="M0 0 C2.97 0 5.94 0 9 0 C8.34 1.98 7.68 3.96 7 6 C6.67 4.68 6.34 3.36 6 2 C4.02 2 2.04 2 0 2 C0.02320313 2.61488281 0.04640625 3.22976562 0.0703125 3.86328125 C0.08835938 4.67152344 0.10640625 5.47976562 0.125 6.3125 C0.14820313 7.11300781 0.17140625 7.91351563 0.1953125 8.73828125 C0 11 0 11 -2 14 C-2.66 14 -3.32 14 -4 14 C-4 15.65 -4 17.3 -4 19 C-4.66 18.67 -5.32 18.34 -6 18 C-4.23536928 11.89262558 -2.30442525 5.92566493 0 0 Z " fill="#E7AD58" transform="translate(129,24)"/>
<path d="M0 0 C0.99 0 1.98 0 3 0 C3.061875 0.94875 3.12375 1.8975 3.1875 2.875 C3.455625 3.90625 3.72375 4.9375 4 6 C6.46255685 7.45291273 6.46255685 7.45291273 9 8 C8.67 9.32 8.34 10.64 8 12 C7.01 12 6.02 12 5 12 C5 10.68 5 9.36 5 8 C4.34 8.66 3.68 9.32 3 10 C2.01 10.33 1.02 10.66 0 11 C-1.62651522 7.74696956 -1.11453156 4.60774398 -1 1 C-0.67 0.67 -0.34 0.34 0 0 Z " fill="#E88F11" transform="translate(6,23)"/>
<path d="M0 0 C0.33 0.598125 0.66 1.19625 1 1.8125 C3.82220057 4.89928188 7.07668579 5.76988723 11 7 C11 7.66 11 8.32 11 9 C10.01 9 9.02 9 8 9 C7.67 10.32 7.34 11.64 7 13 C6.01 12.67 5.02 12.34 4 12 C4 10.68 4 9.36 4 8 C1.525 7.01 1.525 7.01 -1 6 C-1.042721 4.33388095 -1.04063832 2.66617115 -1 1 C-0.67 0.67 -0.34 0.34 0 0 Z " fill="#E6972A" transform="translate(10,24)"/>
<path d="M0 0 C2 1.5625 2 1.5625 4 4 C4.25 7.75 4.25 7.75 4 11 C2.68 11 1.36 11 0 11 C-2.30163882 7.54754176 -2.34490322 6.05261287 -2 2 C-1.34 1.34 -0.68 0.68 0 0 Z " fill="#EA8E0F" transform="translate(115,37)"/>
<path d="M0 0 C0.33 0 0.66 0 1 0 C1.33 3.63 1.66 7.26 2 11 C6.15646125 11.98902916 6.15646125 11.98902916 10.25 11.1875 C12.14083653 9.98454499 12.14083653 9.98454499 14 8 C14.33 8.99 14.66 9.98 15 11 C11.9315153 13.97550031 10.53763669 14.96474513 6.1875 15.25 C5.135625 15.1675 4.08375 15.085 3 15 C3 14.34 3 13.68 3 13 C2.34 13 1.68 13 1 13 C-0.32229189 10.35541621 -0.09677194 8.32238699 -0.0625 5.375 C-0.05347656 4.37210938 -0.04445312 3.36921875 -0.03515625 2.3359375 C-0.02355469 1.56507812 -0.01195312 0.79421875 0 0 Z " fill="#E9B45D" transform="translate(45,36)"/>
<path d="M0 0 C2.97 0.33 5.94 0.66 9 1 C8.01 1.495 8.01 1.495 7 2 C7 2.99 7 3.98 7 5 C5.41773035 5.19627391 3.83410729 5.38165538 2.25 5.5625 C1.36828125 5.66691406 0.4865625 5.77132812 -0.421875 5.87890625 C-2.88432451 5.99456676 -4.66538064 5.73638695 -7 5 C-7 4.34 -7 3.68 -7 3 C-4.69 3.33 -2.38 3.66 0 4 C0 2.68 0 1.36 0 0 Z " fill="#E49323" transform="translate(83,48)"/>
<path d="M0 0 C4.106532 0.50383572 5.9404914 1.58773618 8.9609375 4.36328125 C9.2909375 5.02328125 9.6209375 5.68328125 9.9609375 6.36328125 C7.9809375 5.70328125 6.0009375 5.04328125 3.9609375 4.36328125 C3.9609375 3.70328125 3.9609375 3.04328125 3.9609375 2.36328125 C-1.49676061 2.25189966 -6.65415609 2.44670144 -12.0390625 3.36328125 C-8.78419133 -0.85351061 -4.95098136 -0.11388456 0 0 Z " fill="#E7B264" transform="translate(55.0390625,23.63671875)"/>
<path d="M0 0 C3.43595166 1.52708963 6.11912454 3.59927045 9 6 C5.7 5.67 2.4 5.34 -1 5 C-1.33 5.99 -1.66 6.98 -2 8 C-2.66 7.67 -3.32 7.34 -4 7 C-2.79618552 4.50638429 -1.54571278 2.31856917 0 0 Z " fill="#E8BA71" transform="translate(5,42)"/>
<path d="M0 0 C0.99 0 1.98 0 3 0 C3 1.65 3 3.3 3 5 C2.01 5.33 1.02 5.66 0 6 C0.33 7.32 0.66 8.64 1 10 C1.66 10 2.32 10 3 10 C3.33 11.65 3.66 13.3 4 15 C-2 9 -2 9 -2.1875 6.6875 C-1.9945637 3.9220797 -1.39825155 2.35954949 0 0 Z " fill="#E7A64D" transform="translate(170,37)"/>
<path d="M0 0 C4.01349645 0.28001138 5.72035142 0.75763789 8.8125 3.4375 C12.54088091 7.80503192 12.09006843 10.41575736 12 16 C11.67 16 11.34 16 11 16 C10.5978125 14.1128125 10.5978125 14.1128125 10.1875 12.1875 C9.38855405 8.92849028 8.65002135 7.16819928 6 5 C6 4.34 6 3.68 6 3 C3.03 2.505 3.03 2.505 0 2 C0 1.34 0 0.68 0 0 Z " fill="#EABC76" transform="translate(21,31)"/>
<path d="M0 0 C3.39417765 3.12621626 5.6062718 5.56541027 7 10 C5.54207116 10.05399736 4.08357288 10.09279177 2.625 10.125 C1.81289062 10.14820313 1.00078125 10.17140625 0.1640625 10.1953125 C-2 10 -2 10 -4 8 C-1.69 8.33 0.62 8.66 3 9 C3 7.68 3 6.36 3 5 C2.01 4.67 1.02 4.34 0 4 C0 2.68 0 1.36 0 0 Z " fill="#D8AA60" transform="translate(178,45)"/>
<path d="M0 0 C1.98 0 3.96 0 6 0 C6.36923077 5.53846154 6.36923077 5.53846154 4.5 7.875 C3.7575 8.431875 3.7575 8.431875 3 9 C3 8.01 3 7.02 3 6 C2.34 6 1.68 6 1 6 C0.67 4.02 0.34 2.04 0 0 Z " fill="#E68F1A" transform="translate(108,25)"/>
<path d="M0 0 C0 2.31 0 4.62 0 7 C-1.66611905 7.042721 -3.33382885 7.04063832 -5 7 C-6 6 -6 6 -6.0625 3.4375 C-6.041875 2.633125 -6.02125 1.82875 -6 1 C-1.125 0 -1.125 0 0 0 Z " fill="#E68F16" transform="translate(149,13)"/>
<path d="M0 0 C1.52299523 2.93720508 2.80100302 5.9168649 4 9 C6.97 9 9.94 9 13 9 C13 9.66 13 10.32 13 11 C9.37 11 5.74 11 2 11 C-1.125 3.375 -1.125 3.375 0 0 Z " fill="#DEAC5D" transform="translate(114,44)"/>
<path d="M0 0 C1.65 0 3.3 0 5 0 C5 0.66 5 1.32 5 2 C5.66 2 6.32 2 7 2 C7 2.66 7 3.32 7 4 C7.66 4 8.32 4 9 4 C9 7.63 9 11.26 9 15 C8.67 15 8.34 15 8 15 C7.93683594 14.31292969 7.87367187 13.62585937 7.80859375 12.91796875 C7.30595933 7.67039421 7.30595933 7.67039421 4.30859375 3.66796875 C2.17452373 2.74192582 2.17452373 2.74192582 -1 2 C-0.67 1.34 -0.34 0.68 0 0 Z " fill="#E6B166" transform="translate(51,29)"/>
<path d="M0 0 C4.62 0 9.24 0 14 0 C14 0.66 14 1.32 14 2 C11.67313547 3.16343227 10.15278587 3.19895988 7.5625 3.25 C6.78003906 3.27578125 5.99757813 3.3015625 5.19140625 3.328125 C3 3 3 3 0 0 Z " fill="#E6B05B" transform="translate(76,53)"/>
<path d="M0 0 C1.00306776 4.01227106 1.01825679 4.88828549 -0.25 8.5625 C-0.50265625 9.32691406 -0.7553125 10.09132813 -1.015625 10.87890625 C-2.06359679 13.13703595 -3.06841076 14.44178497 -5 16 C-5.66 16 -6.32 16 -7 16 C-7 15.01 -7 14.02 -7 13 C-6.01 13 -5.02 13 -4 13 C-4 12.01 -4 11.02 -4 10 C-3.34 10 -2.68 10 -2 10 C-1.34 6.7 -0.68 3.4 0 0 Z " fill="#EABC72" transform="translate(67,38)"/>
<path d="M0 0 C2.97 0 5.94 0 9 0 C8 4 8 4 5 6 C5 4.68 5 3.36 5 2 C3.02 2.33 1.04 2.66 -1 3 C-0.67 2.01 -0.34 1.02 0 0 Z " fill="#E9BF7A" transform="translate(175,24)"/>
<path d="M0 0 C2.97 0 5.94 0 9 0 C9 0.33 9 0.66 9 1 C7.35 1.33 5.7 1.66 4 2 C4 4.64 4 7.28 4 10 C1.81024227 6.71536341 1.00193437 3.79303725 0 0 Z " fill="#EFC27D" transform="translate(105,24)"/>
<path d="M0 0 C2.97 0 5.94 0 9 0 C8.34 1.98 7.68 3.96 7 6 C6.67 4.68 6.34 3.36 6 2 C4.02 2 2.04 2 0 2 C-0.33 2.99 -0.66 3.98 -1 5 C-0.67 3.35 -0.34 1.7 0 0 Z " fill="#EBC280" transform="translate(129,24)"/>
<path d="M0 0 C2.31 0 4.62 0 7 0 C8.125 4.75 8.125 4.75 7 7 C4.69 7 2.38 7 0 7 C0 6.67 0 6.34 0 6 C1.65 6 3.3 6 5 6 C5 4.35 5 2.7 5 1 C3.35 1 1.7 1 0 1 C0 0.67 0 0.34 0 0 Z " fill="#DEA149" transform="translate(190,47)"/>
<path d="M0 0 C0.33 0 0.66 0 1 0 C1 2.97 1 5.94 1 9 C-0.98 9.99 -0.98 9.99 -3 11 C-3 9.02 -3 7.04 -3 5 C-2.01 5 -1.02 5 0 5 C0 3.35 0 1.7 0 0 Z " fill="#E0A03A" transform="translate(31,41)"/>
<path d="M0 0 C2.97 0.33 5.94 0.66 9 1 C8.67 1.99 8.34 2.98 8 4 C5.36 3.67 2.72 3.34 0 3 C0 2.01 0 1.02 0 0 Z " fill="#EB8E0F" transform="translate(18,16)"/>
<path d="M0 0 C0.66 0 1.32 0 2 0 C2.36923077 5.41538462 2.36923077 5.41538462 0.5 8.375 C0.005 8.91125 -0.49 9.4475 -1 10 C-2.15837626 5.94568308 -1.83691257 3.78187881 0 0 Z " fill="#E58E17" transform="translate(175,26)"/>
<path d="M0 0 C2.31 0 4.62 0 7 0 C7 0.66 7 1.32 7 2 C6.01 2.33 5.02 2.66 4 3 C2.33289654 4.49985609 2.33289654 4.49985609 1 6 C0.67 4.02 0.34 2.04 0 0 Z " fill="#DF9127" transform="translate(142,25)"/>
<path d="M0 0 C0.99 0.33 1.98 0.66 3 1 C3 2.32 3 3.64 3 5 C3.99 5.33 4.98 5.66 6 6 C5.67 6.66 5.34 7.32 5 8 C2 7 2 7 0 4 C0 2.68 0 1.36 0 0 Z " fill="#E1901A" transform="translate(113,41)"/>
<path d="M0 0 C0.99 0 1.98 0 3 0 C2.74438677 2.3431213 2.40729228 4.67843403 2 7 C1.01 7.495 1.01 7.495 0 8 C0 5.36 0 2.72 0 0 Z " fill="#E69D39" transform="translate(177,26)"/>
<path d="M0 0 C0.433125 0.61875 0.86625 1.2375 1.3125 1.875 C2.99740483 4.2197245 2.99740483 4.2197245 6 6 C4.1875 6.625 4.1875 6.625 2 7 C1.01 6.34 0.02 5.68 -1 5 C-0.67 3.35 -0.34 1.7 0 0 Z " fill="#E8AC57" transform="translate(10,24)"/>
<path d="M0 0 C0.33 0.66 0.66 1.32 1 2 C1.66 2 2.32 2 3 2 C3.33 3.65 3.66 5.3 4 7 C2.68 6.67 1.36 6.34 0 6 C-1.125 2.25 -1.125 2.25 0 0 Z " fill="#EC8C0E" transform="translate(6,45)"/>
<path d="M0 0 C0.66 0 1.32 0 2 0 C2.66 1.32 3.32 2.64 4 4 C3.34 4 2.68 4 2 4 C2 5.65 2 7.3 2 9 C-0.29013653 5.5647952 -0.17842973 4.014669 0 0 Z " fill="#E6A74A" transform="translate(109,31)"/>
<path d="M0 0 C1.65 1.65 3.3 3.3 5 5 C4.34 6.32 3.68 7.64 3 9 C3 7.68 3 6.36 3 5 C2.01 4.67 1.02 4.34 0 4 C0 2.68 0 1.36 0 0 Z " fill="#E9B762" transform="translate(178,45)"/>
<path d="M0 0 C0 0.99 0 1.98 0 3 C-0.66 3.66 -1.32 4.32 -2 5 C-1.67 5.66 -1.34 6.32 -1 7 C-2.32 7 -3.64 7 -5 7 C-4.60196439 4.11424181 -4.20990931 3.17810487 -1.9375 1.25 C-1.298125 0.8375 -0.65875 0.425 0 0 Z " fill="#EFA949" transform="translate(169,32)"/>
<path d="M0 0 C1.98 0 3.96 0 6 0 C6 1.65 6 3.3 6 5 C1.125 2.25 1.125 2.25 0 0 Z " fill="#E4901E" transform="translate(129,26)"/>
</svg>
